Coordinates
version=1
nRows=29
nColumns=24
inDegrees=yes

Units are S.I. units (second, meters, Newtons, ...)
Angles are in degrees.

endheader
time	pelvis_tilt	pelvis_list	pelvis_rotation	pelvis_tx	pelvis_ty	pelvis_tz	hip_flexion_r	hip_adduction_r	hip_rotation_r	knee_angle_r	ankle_angle_r	subtalar_angle_r	mtp_angle_r	hip_flexion_l	hip_adduction_l	hip_rotation_l	knee_angle_l	ankle_angle_l	subtalar_angle_l	mtp_angle_l	lumbar_extension	lumbar_bending	lumbar_rotation
      3.98000000	     31.07031199	      8.67983790	      8.17476869	     -0.94422236	      0.66232057	     -0.27232019	    -13.09007585	     -5.01139754	    -17.39628250	     -0.86920100	     11.98956801	      8.68389593	      0.00000000	    -47.56967744	     -2.31443907	     -5.00924211	    -21.23878514	      6.98277065	     17.21314071	      0.00000000	    -64.00636493	      1.33200718	    -11.53178678
      3.98500000	     31.28185957	      8.70555429	      8.65352780	     -0.93738861	      0.66171153	     -0.27209396	    -13.15288565	     -4.93467196	    -17.54061125	     -2.04611481	     11.63625472	      8.40250577	      0.00000000	    -47.50953642	     -2.98153798	     -4.74993818	    -22.73406730	      6.11221467	     17.20469288	      0.00000000	    -64.08176584	      1.77505451	    -11.67605538
      3.99000000	     31.55558175	      8.63347962	      8.91195881	     -0.93056155	      0.66110754	     -0.27170333	    -13.17710326	     -4.80857737	    -17.57259131	     -3.40914880	     11.25251141	      8.32665631	      0.00000000	    -47.50972983	     -3.59341192	     -4.84288171	    -24.21120183	      5.02031484	     17.29566003	      0.00000000	    -64.21868119	      2.09885833	    -11.52012823
      3.99500000	     31.82981714	      8.52182690	      9.29674155	     -0.92367036	      0.66053626	     -0.27135684	    -13.24305672	     -4.57179430	    -17.58296525	     -4.80389227	     10.77650473	      7.76947071	      0.00000000	    -47.40991649	     -4.33484731	     -4.83262059	    -25.82326643	      3.86188929	     17.24383027	      0.00000000	    -64.31935415	      2.55212006	    -11.46281457
      4.00000000	     32.13155431	      8.38810081	      9.56511718	     -0.91680186	      0.65999282	     -0.27091010	    -13.29323450	     -4.34164994	    -17.65492313	     -6.30790581	     10.36119410	      7.51501645	      0.00000000	    -47.30942904	     -5.02568119	     -4.97416901	    -27.44161957	      2.50440488	     17.22272419	      0.00000000	    -64.45050761	      2.90980699	    -11.27337530
      4.00500000	     32.42360655	      8.22211720	      9.92920050	     -0.90992445	      0.65947032	     -0.27048261	    -13.35061579	     -4.02201310	    -17.63892268	     -7.84840293	      9.92778222	      6.84209773	      0.00000000	    -47.11127129	     -5.81594090	     -5.09355802	    -29.15342381	      1.12512132	     16.95026789	      0.00000000	    -64.55846379	      3.36109040	    -11.14767231
      4.01000000	     32.72008960	      8.02809651	     10.22346203	     -0.90305971	      0.65896579	     -0.26997265	    -13.40353489	     -3.67729239	    -17.64384609	     -9.41109861	      9.59539981	      6.29207265	      0.00000000	    -46.86631083	     -6.58111338	     -5.26796142	    -30.90663740	     -0.38847078	     16.63802466	      0.00000000	    -64.66221776	      3.75665009	    -10.96513833
      4.01500000	     33.02268813	      7.80265629	     10.49621289	     -0.89618799	      0.65849774	     -0.26942039	    -13.47122718	     -3.28792136	    -17.68994592	    -10.97521815	      9.35611987	      5.75350877	      0.00000000	    -46.58554364	     -7.35842585	     -5.49110557	    -32.67335566	     -1.99832810	     16.17301651	      0.00000000	    -64.76169798	      4.14289207	    -10.72495504
      4.02000000	     33.32460691	      7.55450595	     10.75792211	     -0.88933854	      0.65805743	     -0.26882763	    -13.56308377	     -2.85243583	    -17.67753236	    -12.50056392	      9.24195065	      5.17318651	      0.00000000	    -46.24329322	     -8.14149627	     -5.71238405	    -34.48827139	     -3.62404359	     15.55029103	      0.00000000	    -64.85329835	      4.51552954	    -10.48340183
      4.02500000	     33.61118704	      7.29245152	     11.01032514	     -0.88251239	      0.65764698	     -0.26818375	    -13.65725166	     -2.38359552	    -17.60790375	    -13.99668654	      9.26230979	      4.57649219	      0.00000000	    -45.83630109	     -8.91991663	     -5.92512884	    -36.32354934	     -5.25420994	     14.76007340	      0.00000000	    -64.92531061	      4.87250974	    -10.22227294
      4.03000000	     33.89379365	      7.00452115	     11.23199112	     -0.87570733	      0.65727365	     -0.26752063	    -13.77805591	     -1.88011011	    -17.55836808	    -15.42912640	      9.43422327	      4.01560463	      0.00000000	    -45.38988027	     -9.68021702	     -6.14414185	    -38.16164606	     -6.83585613	     13.82439990	      0.00000000	    -64.98240300	      5.21235548	     -9.94218951
      4.03500000	     34.18679033	      6.69356839	     11.45461160	     -0.86885876	      0.65696237	     -0.26681204	    -13.97748592	     -1.32166548	    -17.55506545	    -16.74203819	      9.78604841	      3.51969514	      0.00000000	    -44.93446597	    -10.46111507	     -6.37497017	    -39.97492884	     -8.34664238	     12.77809854	      0.00000000	    -65.02827519	      5.53937233	     -9.60860918
      4.04000000	     34.42028669	      6.40780554	     11.63006322	     -0.86217943	      0.65667663	     -0.26607918	    -14.12555768	     -0.79591718	    -17.37585944	    -18.00963696	     10.22407047	      2.97557260	      0.00000000	    -44.34952030	    -11.12646426	     -6.49377699	    -41.83575837	     -9.69726640	     11.52784049	      0.00000000	    -65.04625631	      5.80740407	     -9.36516926
      4.04500000	     34.71275027	      6.05081339	     11.83216222	     -0.85534189	      0.65648211	     -0.26536263	    -14.44643107	     -0.14917387	    -17.34040046	    -19.07824935	     10.84298534	      2.58106418	      0.00000000	    -43.85328481	    -11.88270834	     -6.67202938	    -43.60890099	    -10.85264151	     10.27368215	      0.00000000	    -65.06581827	      6.12697054	     -8.97407348
      4.05000000	     34.98597713	      5.72747212	     11.99929756	     -0.84870189	      0.65637876	     -0.26465684	    -14.77061433	      0.45907241	    -17.19632385	    -20.08446905	     11.43518694	      2.19466607	      0.00000000	    -43.28707900	    -12.52662142	     -6.73967168	    -45.38411619	    -11.83723298	      8.84654936	      0.00000000	    -65.10100535	      6.41944078	     -8.68299306
      4.05500000	     35.24683048	      5.39786699	     12.15338425	     -0.84203153	      0.65634709	     -0.26394339	    -15.17724828	      1.09445086	    -17.05307950	    -20.90648907	     12.17353511	      1.86399700	      0.00000000	    -42.70633518	    -13.13635971	     -6.78077876	    -47.11510817	    -12.54935264	      7.42335955	      0.00000000	    -65.10892402	      6.67646419	     -8.35122619
      4.06000000	     35.49739089	      5.08096955	     12.28400774	     -0.83544037	      0.65641002	     -0.26320925	    -15.64271190	      1.72750692	    -16.87723369	    -21.58484028	     12.93084003	      1.59097862	      0.00000000	    -42.09462577	    -13.67809295	     -6.76270042	    -48.81212231	    -13.03202864	      5.96584115	      0.00000000	    -65.11358521	      6.90630446	     -8.03578045
      4.06500000	     35.73166514	      4.77635654	     12.38843479	     -0.82889484	      0.65657610	     -0.26251934	    -16.17158069	      2.34781567	    -16.68017460	    -22.10572816	     13.70655939	      1.36924338	      0.00000000	    -41.46159001	    -14.13617986	     -6.69155524	    -50.45407775	    -13.26405673	      4.50799663	      0.00000000	    -65.10746187	      7.11267079	     -7.72545867
      4.07000000	     35.95261865	      4.49235589	     12.46969143	     -0.82240781	      0.65684935	     -0.26182402	    -16.76442042	      2.95208578	    -16.45787606	    -22.47360645	     14.47005270	      1.20190013	      0.00000000	    -40.80923910	    -14.51434602	     -6.56836012	    -52.03307261	    -13.25470525	      3.06396638	      0.00000000	    -65.09269913	      7.28045631	     -7.42173908
      4.07500000	     36.14432277	      4.24799688	     12.52798082	     -0.81600676	      0.65723861	     -0.26119166	    -17.40637419	      3.50377897	    -16.23009924	    -22.69420251	     15.22238468	      1.08504874	      0.00000000	    -40.11312454	    -14.78721724	     -6.39685327	    -53.55325000	    -13.05012042	      1.65506866	      0.00000000	    -65.06686800	      7.43153675	     -7.15177655
      4.08000000	     36.35302099	      4.01535088	     12.53160289	     -0.80962889	      0.65773436	     -0.26053467	    -18.13789457	      4.04182388	    -15.95351273	    -22.77603393	     15.91989579	      0.99523494	      0.00000000	    -39.46856455	    -14.97301861	     -6.22488051	    -54.96785928	    -12.53314312	      0.35025413	      0.00000000	    -65.05002654	      7.50497559	     -6.85054649
      4.08500000	     36.53292875	      3.80923672	     12.49203814	     -0.80336227	      0.65835273	     -0.25994197	    -18.90908146	      4.52290330	    -15.68803049	    -22.71372707	     16.54040973	      0.94704854	      0.00000000	    -38.78469333	    -15.05282775	     -6.05153704	    -56.31077897	    -11.91502436	     -0.92473207	      0.00000000	    -65.04153819	      7.57026111	     -6.56155524
      4.09000000	     36.68821476	      3.63413326	     12.43261049	     -0.79717683	      0.65907594	     -0.25935308	    -19.71086562	      4.95936133	    -15.41559725	    -22.54593460	     17.07540882	      0.96421721	      0.00000000	    -38.06510110	    -15.04395387	     -5.83779654	    -57.57180472	    -11.19107050	     -2.15004763	      0.00000000	    -65.02029154	      7.58624211	     -6.28962237
      4.09500000	     36.80111560	      3.49547904	     12.35727879	     -0.79109249	      0.65989984	     -0.25891144	    -20.52858051	      5.32352435	    -15.15499540	    -22.26675039	     17.54947543	      1.05326673	      0.00000000	    -37.28607628	    -14.91964741	     -5.57465725	    -58.75689654	    -10.39176049	     -3.31298779	      0.00000000	    -64.98240096	      7.61812174	     -6.04497581
      4.10000000	     36.93507010	      3.39711764	     12.16391878	     -0.78507301	      0.66080647	     -0.25837570	    -21.40370987	      5.61249289	    -14.79428138	    -21.92498076	     17.99827285	      1.05956081	      0.00000000	    -36.58340313	    -14.66833632	     -5.38986881	    -59.80976843	     -9.36614444	     -4.15866922	      0.00000000	    -64.98754665	      7.52146285	     -5.84216568
      4.10500000	     36.99316067	      3.28979358	     12.03855624	     -0.77914982	      0.66179427	     -0.25800163	    -22.24727609	      5.88438072	    -14.60967711	    -21.47207216	     18.26156902	      1.27587878	      0.00000000	    -35.74372195	    -14.41020978	     -5.16817305	    -60.81076029	     -8.42426706	     -5.19808027	      0.00000000	    -64.93511245	      7.48651388	     -5.53049418
      4.11000000	     37.06070334	      3.24814652	     11.78360532	     -0.77326229	      0.66287035	     -0.25757184	    -23.13374866	      6.04508662	    -14.29031907	    -20.97597534	     18.50801709	      1.34179274	      0.00000000	    -34.98122166	    -13.98157401	     -4.99964701	    -61.65411503	     -7.32277203	     -5.86775124	      0.00000000	    -64.90802515	      7.32747830	     -5.34204891
      4.11500000	     37.06241005	      3.18923933	     11.59692403	     -0.76754798	      0.66395497	     -0.25729819	    -23.95609324	      6.19109110	    -14.15122548	    -20.43852869	     18.68790963	      1.67415844	      0.00000000	    -34.07537758	    -13.57088553	     -4.80325420	    -62.47877991	     -6.25840734	     -6.55467670	      0.00000000	    -64.86149505	      7.24458457	     -5.04906575
      4.12000000	     37.07264294	      3.19591570	     11.30170593	     -0.76182501	      0.66514369	     -0.25696423	    -24.82207162	      6.23909215	    -13.88838115	    -19.85434921	     18.75100618	      1.78069693	      0.00000000	    -33.24870576	    -13.01942432	     -4.68543048	    -63.12547854	     -5.16015425	     -7.02375362	      0.00000000	    -64.82319574	      7.04876397	     -4.86315293
